# xmcd CD database file
# Copyright (C) 1997 Ti Kan
# 
# Track frame offsets:
#     150
#     12358
#     24878
#     38058
#     51130
#     65673
#     82298
#     101528
#     117463
#     136030
#     149600
# 
# Disc length: 2208 seconds
# 
# Revision: 1
# Processed by: cddbd v1.4b41PL1 Copyright (c) Steve Scherf et al.
# Submitted via: DiscPlay 4.0.4
# 
DISCID=96089e0b
DTITLE=Rob Crosby - Another Place And Time
DYEAR=1900
DGENRE=
TTITLE0=She Wrote The Book
TTITLE1=We'll Cross That Bridge
TTITLE2=Cold Day In Tennessee
TTITLE3=String Of Bad Love
TTITLE4=Another Place And Time
TTITLE5=Tried And True
TTITLE6=In The Blood
TTITLE7=You Can't Walk This Road Alone
TTITLE8=Old News
TTITLE9=When Hearts Agree
TTITLE10=I'm Down And She's Out
EXTD=
EXTT0=
EXTT1=
EXTT2=
EXTT3=
EXTT4=
EXTT5=
EXTT6=
EXTT7=
EXTT8=
EXTT9=
EXTT10=
PLAYORDER=
